<?xml version="1.0" encoding="utf-8"?>
<svg x="0pt" y="0pt" width="512pt" height="512pt" viewBox="0 0 512 512" xmlns="http://www.w3.org/2000/svg" xmlns:xlink="http://www.w3.org/1999/xlink">
  <!--Generated by AMDN-->
  <g id="Colored">
    <path id="background" style="fill:#4e90eb;fill-opacity:1;fill-rule:nonzero;opacity:1;stroke:none;" d="M488,0 C490.122,0,492.157,0.843,493.657,2.343 C495.524,4.21,497.391,6.077,499.257,7.944 C499.257,7.944,509.657,18.343,509.657,18.343 C511.157,19.843,512,21.878,512,24 C512,24,512,488,512,488 C512,490.122,511.157,492.157,509.657,493.657 C507.79,495.524,505.923,497.391,504.056,499.257 C501.7,501.613,499.344,503.97,496.988,506.326 C496.988,506.326,493.657,509.657,493.657,509.657 C492.157,511.157,490.122,512,488,512 C488,512,24,512,24,512 C21.878,512,19.843,511.157,18.343,509.657 C16.476,507.79,14.609,505.923,12.743,504.056 C12.743,504.056,2.343,493.657,2.343,493.657 C0.843,492.157,0,490.122,0,488 C0,488,0,24,0,24 C0,21.878,0.843,19.843,2.343,18.343 C4.21,16.476,6.077,14.609,7.944,12.743 C10.3,10.387,12.656,8.03,15.012,5.674 C15.012,5.674,18.343,2.343,18.343,2.343 C19.843,0.843,21.878,0,24,0 C24,0,488,0,488,0 z"/>
    <g id="Grid">
      <path id="Path 19" style="fill:#a6c8f6;fill-opacity:1;fill-rule:nonzero;opacity:0.5;stroke:none;" d="M63.8098,0 C63.8098,0,63.8098,64.5214,63.8098,64.5214 C63.8098,64.5214,216.287,64.5214,216.287,64.5214 C216.287,64.5214,216.287,0,216.287,0 C216.287,0,218.287,0,218.287,0 C218.287,0,218.287,64.5214,218.287,64.5214 C218.287,64.5214,231.766,64.5214,231.766,64.5214 C231.766,64.5214,231.766,0,231.766,0 C231.766,0,233.766,0,233.766,0 C233.766,0,233.766,64.5214,233.766,64.5214 C233.766,64.5214,262.728,64.5214,262.728,64.5214 C262.728,64.5214,262.728,0,262.728,0 C262.728,0,264.728,0,264.728,0 C264.728,0,264.728,64.5214,264.728,64.5214 C264.728,64.5214,278.202,64.5214,278.202,64.5214 C278.202,64.5214,278.202,0,278.202,0 C278.202,0,280.201,0,280.201,0 C280.201,0,280.201,64.5214,280.201,64.5214 C280.201,64.5214,315.517,64.5214,315.517,64.5214 C315.517,64.5214,315.517,0,315.517,0 C315.517,0,317.517,0,317.517,0 C317.517,0,317.517,64.5214,317.517,64.5214 C317.517,64.5214,371.566,64.5214,371.566,64.5214 C371.566,64.5214,371.566,0,371.566,0 C371.566,0,373.566,0,373.566,0 C373.566,0,373.566,64.5214,373.566,64.5214 C373.566,64.5214,434.995,64.5214,434.995,64.5214 C434.995,64.5214,434.995,0,434.995,0 C434.995,0,436.995,0,436.995,0 C436.995,0,436.995,64.5214,436.995,64.5214 C436.995,64.5214,512.06,64.5214,512.06,64.5214 C512.06,64.5214,512.06,66.5212,512.06,66.5212 C512.06,66.5212,436.995,66.5212,436.995,66.5212 C436.995,66.5212,436.995,219.036,436.995,219.036 C436.995,219.036,512.06,219.036,512.06,219.036 C512.06,219.036,512.06,221.036,512.06,221.036 C512.06,221.036,436.995,221.036,436.995,221.036 C436.995,221.036,436.995,247.798,436.995,247.798 C436.995,247.798,512.06,247.798,512.06,247.798 C512.06,247.798,512.06,249.798,512.06,249.798 C512.06,249.798,436.995,249.798,436.995,249.798 C436.995,249.798,436.995,439.566,436.995,439.566 C436.995,439.566,512.06,439.566,512.06,439.566 C512.06,439.566,512.06,441.566,512.06,441.566 C512.06,441.566,436.995,441.566,436.995,441.566 C436.995,441.566,436.995,511.94,436.995,511.94 C436.995,511.94,434.995,511.94,434.995,511.94 C434.995,511.94,434.995,441.566,434.995,441.566 C434.995,441.566,373.566,441.566,373.566,441.566 C373.566,441.566,373.566,511.94,373.566,511.94 C373.566,511.94,371.566,511.94,371.566,511.94 C371.566,511.94,371.566,441.566,371.566,441.566 C371.566,441.566,317.517,441.566,317.517,441.566 C317.517,441.566,317.517,511.94,317.517,511.94 C317.517,511.94,315.517,511.94,315.517,511.94 C315.517,511.94,315.517,441.566,315.517,441.566 C315.517,441.566,280.201,441.566,280.201,441.566 C280.201,441.566,280.201,511.94,280.201,511.94 C280.201,511.94,278.202,511.94,278.202,511.94 C278.202,511.94,278.202,441.566,278.202,441.566 C278.202,441.566,264.728,441.566,264.728,441.566 C264.728,441.566,264.728,511.94,264.728,511.94 C264.728,511.94,262.728,511.94,262.728,511.94 C262.728,511.94,262.728,441.566,262.728,441.566 C262.728,441.566,233.766,441.566,233.766,441.566 C233.766,441.566,233.766,511.94,233.766,511.94 C233.766,511.94,231.766,511.94,231.766,511.94 C231.766,511.94,231.766,441.566,231.766,441.566 C231.766,441.566,218.287,441.566,218.287,441.566 C218.287,441.566,218.287,511.94,218.287,511.94 C218.287,511.94,216.287,511.94,216.287,511.94 C216.287,511.94,216.287,441.566,216.287,441.566 C216.287,441.566,63.8098,441.566,63.8098,441.566 C63.8098,441.566,63.8098,511.94,63.8098,511.94 C63.8098,511.94,61.81,511.94,61.81,511.94 C61.81,511.94,61.81,441.566,61.81,441.566 C61.81,441.566,0.060276,441.566,0.060276,441.566 C0.060276,441.566,0.060276,439.566,0.060276,439.566 C0.060276,439.566,61.81,439.566,61.81,439.566 C61.81,439.566,61.81,249.798,61.81,249.798 C61.81,249.798,0.060276,249.798,0.060276,249.798 C0.060276,249.798,0.060276,247.798,0.060276,247.798 C0.060276,247.798,61.81,247.798,61.81,247.798 C61.81,247.798,61.81,221.036,61.81,221.036 C61.81,221.036,0.060276,221.036,0.060276,221.036 C0.060276,221.036,0.060276,219.036,0.060276,219.036 C0.060276,219.036,61.81,219.036,61.81,219.036 C61.81,219.036,61.81,66.5212,61.81,66.5212 C61.81,66.5212,0.060276,66.5212,0.060276,66.5212 C0.060276,66.5212,0.060276,64.5214,0.060276,64.5214 C0.060276,64.5214,61.81,64.5214,61.81,64.5214 C61.81,64.5214,61.81,0,61.81,0 C61.81,0,63.8098,0,63.8098,0 z M434.995,249.798 C434.995,249.798,373.566,249.798,373.566,249.798 C373.566,249.798,373.566,439.566,373.566,439.566 C373.566,439.566,434.995,439.566,434.995,439.566 C434.995,439.566,434.995,249.798,434.995,249.798 z M371.566,249.798 C371.566,249.798,317.517,249.798,317.517,249.798 C317.517,249.798,317.517,439.566,317.517,439.566 C317.517,439.566,371.566,439.566,371.566,439.566 C371.566,439.566,371.566,249.798,371.566,249.798 z M315.517,249.798 C315.517,249.798,280.201,249.798,280.201,249.798 C280.201,249.798,280.201,439.566,280.201,439.566 C280.201,439.566,315.517,439.566,315.517,439.566 C315.517,439.566,315.517,249.798,315.517,249.798 z M278.202,249.798 C278.202,249.798,264.728,249.798,264.728,249.798 C264.728,249.798,264.728,439.566,264.728,439.566 C264.728,439.566,278.202,439.566,278.202,439.566 C278.202,439.566,278.202,249.798,278.202,249.798 z M262.728,249.798 C262.728,249.798,233.766,249.798,233.766,249.798 C233.766,249.798,233.766,439.566,233.766,439.566 C233.766,439.566,262.728,439.566,262.728,439.566 C262.728,439.566,262.728,249.798,262.728,249.798 z M231.766,249.798 C231.766,249.798,218.287,249.798,218.287,249.798 C218.287,249.798,218.287,439.566,218.287,439.566 C218.287,439.566,231.766,439.566,231.766,439.566 C231.766,439.566,231.766,249.798,231.766,249.798 z M216.287,249.798 C216.287,249.798,63.8098,249.798,63.8098,249.798 C63.8098,249.798,63.8098,439.566,63.8098,439.566 C63.8098,439.566,216.287,439.566,216.287,439.566 C216.287,439.566,216.287,249.798,216.287,249.798 z M262.728,221.036 C262.728,221.036,233.766,221.036,233.766,221.036 C233.766,221.036,233.766,247.798,233.766,247.798 C233.766,247.798,262.728,247.798,262.728,247.798 C262.728,247.798,262.728,221.036,262.728,221.036 z M434.995,221.036 C434.995,221.036,373.566,221.036,373.566,221.036 C373.566,221.036,373.566,247.798,373.566,247.798 C373.566,247.798,434.995,247.798,434.995,247.798 C434.995,247.798,434.995,221.036,434.995,221.036 z M315.517,221.036 C315.517,221.036,280.201,221.036,280.201,221.036 C280.201,221.036,280.201,247.798,280.201,247.798 C280.201,247.798,315.517,247.798,315.517,247.798 C315.517,247.798,315.517,221.036,315.517,221.036 z M216.287,221.036 C216.287,221.036,63.8098,221.036,63.8098,221.036 C63.8098,221.036,63.8098,247.798,63.8098,247.798 C63.8098,247.798,216.287,247.798,216.287,247.798 C216.287,247.798,216.287,221.036,216.287,221.036 z M371.566,221.036 C371.566,221.036,317.517,221.036,317.517,221.036 C317.517,221.036,317.517,247.798,317.517,247.798 C317.517,247.798,371.566,247.798,371.566,247.798 C371.566,247.798,371.566,221.036,371.566,221.036 z M278.202,221.036 C278.202,221.036,264.728,221.036,264.728,221.036 C264.728,221.036,264.728,247.798,264.728,247.798 C264.728,247.798,278.202,247.798,278.202,247.798 C278.202,247.798,278.202,221.036,278.202,221.036 z M231.766,221.036 C231.766,221.036,218.287,221.036,218.287,221.036 C218.287,221.036,218.287,247.798,218.287,247.798 C218.287,247.798,231.766,247.798,231.766,247.798 C231.766,247.798,231.766,221.036,231.766,221.036 z M434.995,66.5212 C434.995,66.5212,373.566,66.5212,373.566,66.5212 C373.566,66.5212,373.566,219.036,373.566,219.036 C373.566,219.036,434.995,219.036,434.995,219.036 C434.995,219.036,434.995,66.5212,434.995,66.5212 z M371.566,66.5212 C371.566,66.5212,317.517,66.5212,317.517,66.5212 C317.517,66.5212,317.517,219.036,317.517,219.036 C317.517,219.036,371.566,219.036,371.566,219.036 C371.566,219.036,371.566,66.5212,371.566,66.5212 z M315.517,66.5212 C315.517,66.5212,280.201,66.5212,280.201,66.5212 C280.201,66.5212,280.201,219.036,280.201,219.036 C280.201,219.036,315.517,219.036,315.517,219.036 C315.517,219.036,315.517,66.5212,315.517,66.5212 z M278.202,66.5212 C278.202,66.5212,264.728,66.5212,264.728,66.5212 C264.728,66.5212,264.728,219.036,264.728,219.036 C264.728,219.036,278.202,219.036,278.202,219.036 C278.202,219.036,278.202,66.5212,278.202,66.5212 z M262.728,66.5212 C262.728,66.5212,233.766,66.5212,233.766,66.5212 C233.766,66.5212,233.766,219.036,233.766,219.036 C233.766,219.036,262.728,219.036,262.728,219.036 C262.728,219.036,262.728,66.5212,262.728,66.5212 z M231.766,66.5212 C231.766,66.5212,218.287,66.5212,218.287,66.5212 C218.287,66.5212,218.287,219.036,218.287,219.036 C218.287,219.036,231.766,219.036,231.766,219.036 C231.766,219.036,231.766,66.5212,231.766,66.5212 z M216.287,66.5212 C216.287,66.5212,63.8098,66.5212,63.8098,66.5212 C63.8098,66.5212,63.8098,219.036,63.8098,219.036 C63.8098,219.036,216.287,219.036,216.287,219.036 C216.287,219.036,216.287,66.5212,216.287,66.5212 z"/>
    </g>
    <g id="Group">
      <path id="Path 260" style="fill:#a6c8f6;fill-opacity:1;fill-rule:nonzero;opacity:1;stroke:none;" d="M80.8834,65.5384 C87.4117,68.2006,84.8933,66.5385,88.8732,69.7885 C88.8732,69.7885,139.849,120.766,139.849,120.766 C139.849,120.766,185.503,75.1098,185.503,75.1098 C189.858,70.757,189.858,70.757,190.825,69.7885 C194.639,66.0977,197.452,65.7027,202.5,65.5289 C202.5,65.5289,204.728,65.5384,204.728,65.5384 C211.257,68.2006,208.738,66.5385,212.718,69.7885 C218.763,75.835,218.763,85.637,212.718,91.6819 C211.749,92.6489,211.749,92.6489,207.397,97.0032 C207.397,97.0032,161.742,142.658,161.742,142.658 C161.742,142.658,212.718,193.633,212.718,193.633 C218.763,199.68,218.763,209.482,212.718,215.527 C206.672,221.573,196.869,221.573,190.825,215.527 C190.825,215.527,139.849,164.551,139.849,164.551 C139.849,164.551,116.086,188.312,116.086,188.312 C116.086,188.312,94.1945,210.205,94.1945,210.205 C89.8401,214.56,89.8401,214.56,88.8732,215.527 C82.8267,221.573,73.0247,221.573,66.9798,215.527 C60.9349,209.482,60.9349,199.68,66.9798,193.633 C67.9467,192.666,67.9467,192.666,72.3011,188.312 C72.3011,188.312,117.955,142.658,117.955,142.658 C117.955,142.658,66.9798,91.6819,66.9798,91.6819 C60.9349,85.637,60.9349,75.835,66.9798,69.7885 C70.7938,66.0977,73.6061,65.7027,78.6557,65.5289 C78.6557,65.5289,80.8834,65.5384,80.8834,65.5384 z"/>
      <path id="Path 263" style="fill:#a6c8f6;fill-opacity:1;fill-rule:nonzero;opacity:1;stroke:none;" d="M248.213,65.2556 C256.762,65.2556,263.694,72.1853,263.694,80.736 C263.694,204.162,263.706,162.881,263.694,204.581 C263.694,213.13,256.762,220.061,248.213,220.061 C239.663,220.061,232.733,213.13,232.733,204.581 C232.733,204.581,232.733,80.736,232.733,80.736 C232.733,72.1853,239.663,65.2556,248.213,65.2556 z"/>
      <path id="Path 265" style="fill:#a6c8f6;fill-opacity:1;fill-rule:nonzero;opacity:1;stroke:none;" d="M295.384,65.5289 C295.384,65.5289,297.612,65.5384,297.612,65.5384 C304.141,68.2006,301.622,66.5385,305.6,69.7885 C306.569,70.757,306.569,70.757,310.923,75.1098 C310.923,75.1098,424.124,188.312,424.124,188.312 C428.478,192.666,428.478,192.666,429.447,193.633 C435.492,199.68,435.492,209.482,429.447,215.527 C423.4,221.573,413.598,221.573,407.553,215.527 C407.553,215.527,283.709,91.6819,283.709,91.6819 C277.662,85.637,277.662,75.835,283.709,69.7885 C287.521,66.0977,290.335,65.7027,295.384,65.5289 z"/>
    </g>
    <g id="Group">
      <path id="Compound Group" style="fill:#a6c8f6;fill-opacity:1;fill-rule:evenodd;opacity:1;stroke:none;" d="M304.496,248.808 C311.122,248.808,316.494,254.179,316.494,260.805 C316.494,260.805,316.494,321.953,316.494,321.953 C316.494,392.03,259.689,448.821,189.625,448.821 C119.549,448.821,62.7573,392.03,62.7573,321.953 C62.7573,321.953,62.7573,260.805,62.7573,260.805 C62.7573,254.179,68.1287,248.808,74.7548,248.808 C74.7548,248.808,114.194,248.808,114.194,248.808 C120.82,248.808,126.191,254.179,126.191,260.805 C126.191,260.805,126.191,321.953,126.191,321.953 C126.191,356.991,154.587,385.387,189.625,385.387 C224.664,385.387,253.06,356.991,253.06,321.953 C253.06,321.953,253.06,260.805,253.06,260.805 C253.06,254.179,258.431,248.808,265.057,248.808 C265.057,248.808,304.496,248.808,304.496,248.808 z"/>
      <path id="Compound Group" style="fill:#a6c8f6;fill-opacity:1;fill-rule:evenodd;opacity:1;stroke:none;" d="M384.629,440.618 C377.959,440.618,372.552,435.21,372.552,428.54 C372.552,428.54,372.552,260.902,372.552,260.902 C372.552,254.232,377.959,248.825,384.629,248.825 C384.629,248.825,423.909,248.825,423.909,248.825 C430.579,248.825,435.986,254.232,435.986,260.902 C435.986,260.902,435.986,428.54,435.986,428.54 C435.986,435.21,430.579,440.618,423.909,440.618 C423.909,440.618,384.629,440.618,384.629,440.618 z"/>
    </g>
    <g id="Group">
      <path id="Compound Group" style="fill:#ffffff;fill-opacity:1;fill-rule:evenodd;opacity:1;stroke:none;" d="M339.905,476.554 C328.888,454.027,326.849,449.859,317.006,429.732 C315.926,427.524,313.008,427.009,311.237,428.713 C300.807,438.748,290.377,448.783,279.947,458.818 C277.645,461.033,273.81,459.401,273.81,456.206 C273.81,456.206,273.81,294.665,273.81,294.665 C273.81,291.662,277.252,289.962,279.637,291.787 C321.844,324.084,364.05,356.382,406.256,388.679 C408.762,390.597,407.791,394.579,404.683,395.127 C390.503,397.629,376.322,400.131,362.141,402.633 C359.767,403.052,358.456,405.629,359.515,407.794 C370.085,429.407,380.655,451.019,391.226,472.631 C392.095,474.408,391.379,476.553,389.617,477.452 C389.617,477.452,353.467,495.894,353.467,495.894 C351.663,496.815,349.454,496.078,348.564,494.258 C348.564,494.258,339.905,476.554,339.905,476.554 z M316.151,405.77 C317.41,404.559,319.484,404.925,320.252,406.495 C320.252,406.495,354.958,477.457,354.958,477.457 C355.591,478.75,357.161,479.274,358.444,478.62 C363.32,476.132,368.196,473.645,373.073,471.157 C374.325,470.518,374.834,468.993,374.216,467.73 C362.628,444.036,351.04,420.342,339.451,396.647 C338.698,395.108,339.63,393.276,341.318,392.978 C341.318,392.978,375.326,386.978,375.326,386.978 C377.535,386.588,378.226,383.758,376.444,382.395 C347.989,360.619,319.533,338.844,291.078,317.069 C289.383,315.772,286.936,316.981,286.936,319.115 C286.936,319.115,286.936,427.825,286.936,427.825 C286.936,430.097,289.662,431.257,291.299,429.682 C297.812,423.415,299.277,422.006,308.169,413.45 C308.169,413.45,316.151,405.77,316.151,405.77 z"/>
    </g>
  </g>
</svg>
